<?xml version="1.0" standalone="no"?><!DOCTYPE svg PUBLIC "-//W3C//DTD SVG 1.1//EN" "http://www.w3.org/Graphics/SVG/1.1/DTD/svg11.dtd"><svg t="1589505517731" class="icon" viewBox="0 0 1024 1024" version="1.1" xmlns="http://www.w3.org/2000/svg" p-id="5834" xmlns:xlink="http://www.w3.org/1999/xlink" width="200" height="200"><defs><style type="text/css"></style></defs><path d="M715.2 752.9H293.3c-7.7 0-13.9 6.2-13.9 13.9s6.2 13.9 13.9 13.9h421.9c7.7 0 13.9-6.2 13.9-13.9-0.1-7.7-6.3-13.9-13.9-13.9zM715.2 638.1H293.3c-7.7 0-13.9 6.2-13.9 13.9s6.2 13.9 13.9 13.9h421.9c7.7 0 13.9-6.2 13.9-13.9-0.1-7.7-6.3-13.9-13.9-13.9z" fill="#717071" p-id="5835"></path><path d="M915.2 157.4L765.6 10c-6.5-6.4-15.2-10-24.4-10H149.1c-19.2 0-34.7 15.5-34.7 34.7v954.6c0 19.2 15.5 34.7 34.7 34.7h741.7c19.2 0 34.7-15.5 34.7-34.7V182.1c0.1-9.3-3.7-18.2-10.3-24.7zM183.8 954.6V69.3h536.6v113.1c0 11.5 9.3 20.8 20.8 20.8h114.9v751.3H183.8z" fill="#717071" p-id="5836"></path><path d="M426.4 520.1c6.6 7.4 15.1 13.1 25.3 17.3 10.3 4.2 22.7 6.2 37.1 6.2 12 0 23.1-1.6 33.3-4.9 10.2-3.3 17.6-8.1 22.3-14.5 3.2-4.4 4.5-8.7 4-13-0.5-4.3-2.1-8-4.8-11-2.7-3.1-6.3-5-10.8-5.9-4.6-0.9-9.4 0.1-14.5 2.8-3 1.7-7 3.3-12.1 4.6-5.1 1.3-10.9 2-17.3 2-12.8 0-22.3-3.8-28.7-11.4-6.4-7.6-9.5-17.9-9.5-30.9V435c0-13 3.2-23.3 9.5-30.9 6.4-7.6 15.9-11.4 28.7-11.4 6.4 0 11.8 0.8 16.2 2.4 4.4 1.6 8.4 3.4 12.1 5.3 6.9 3.4 12.7 4.4 17.5 2.9 4.8-1.5 8.3-4 10.6-7.7 2.3-3.7 3.4-7.9 3.1-12.7-0.2-4.8-2-8.8-5.1-11.9-5.7-5.7-13-10.1-22.1-13.4-9.1-3.3-19.9-5-32.4-5-14.5 0-26.9 2.1-37.1 6.3-10.3 4.2-18.7 9.9-25.3 17.3-6.6 7.3-11.5 15.9-14.5 25.5-3.1 9.7-4.6 20.1-4.6 31.1v30.9c0 11 1.5 21.4 4.6 31.1a68 68 0 0 0 14.5 25.3zM725.6 353.6c-5.9-1.5-11.2-1-16 1.5-4.8 2.4-7.9 5.8-9.4 9.9L659 490l-41.5-125c-1.2-4.1-4.2-7.5-9-9.9-4.8-2.4-10.2-2.9-16.3-1.5-6.6 1.7-11.3 4.8-14 9.4-2.7 4.6-3.4 8.9-2.2 13.1l59.2 152.2c1.2 4.2 4 7.8 8.3 10.8 4.3 3.1 9.5 4.6 15.6 4.6 5.9 0 11-1.5 15.4-4.6 4.4-3 7.2-6.7 8.4-10.8l59.2-152.2c1.2-4.2 0.4-8.5-2.4-13.1-2.7-4.5-7.4-7.7-14.1-9.4z" fill="#717071" p-id="5837"></path></svg>