<?xml version="1.0" standalone="no"?><!DOCTYPE svg PUBLIC "-//W3C//DTD SVG 1.1//EN" "http://www.w3.org/Graphics/SVG/1.1/DTD/svg11.dtd"><svg t="1589505698471" class="icon" viewBox="0 0 1024 1024" version="1.1" xmlns="http://www.w3.org/2000/svg" p-id="2226" xmlns:xlink="http://www.w3.org/1999/xlink" width="200" height="200"><defs><style type="text/css"></style></defs><path fill="#7f8c8d" d="M384.682667 121.002667h-375.466667v358.4l521.386667 516.437333s60.586667 60.245333 121.173333 0l242.346667-240.810667s60.586667-60.245333 0-120.32-509.44-513.706667-509.44-513.706666z m-126.805334 242.688a85.333333 85.333333 0 0 1-121.173333 0 85.333333 85.333333 0 0 1 0-120.32 85.333333 85.333333 0 0 1 121.173333 0 85.333333 85.333333 0 0 1 0 120.32z" p-id="2227"></path><path fill="#7f8c8d" d="M979.797333 421.717333C919.210667 361.642667 538.282667 1.536 538.282667 1.536h-392.533334v85.333333h307.2L961.024 593.92l42.837333-42.496a112.469333 112.469333 0 0 0-24.064-129.706667z" p-id="2228"></path></svg>