<?xml version="1.0" standalone="no"?><!DOCTYPE svg PUBLIC "-//W3C//DTD SVG 1.1//EN" "http://www.w3.org/Graphics/SVG/1.1/DTD/svg11.dtd"><svg t="1589685954141" class="icon" viewBox="0 0 1024 1024" version="1.1" xmlns="http://www.w3.org/2000/svg" p-id="2310" xmlns:xlink="http://www.w3.org/1999/xlink" width="200" height="200"><defs><style type="text/css"></style></defs><path d="M86.432 377.408c0 182.592 153.024 362.144 394.304 516.448 9.44 5.568 22.304 11.584 31.296 11.584s21.856-5.984 30.88-11.584C784.608 739.552 937.6 560 937.6 377.44c0-151.712-104.128-258.88-243.008-258.88-79.712 0-144 37.728-182.56 95.584-38.592-57.408-103.264-95.584-182.56-95.584-138.848 0-243.008 107.168-243.008 258.88z m68.992 0c0-113.984 73.696-189.856 173.152-189.856 80.576 0 126.432 50.144 154.272 92.992 11.584 17.12 18.88 21.856 29.152 21.856s16.704-5.152 29.152-21.856c29.12-42.016 74.144-92.992 154.272-92.992 99.424 0 173.152 75.84 173.152 189.856 0 159.424-168.416 331.296-348 450.4-4.288 3.008-6.848 5.152-8.576 5.152s-4.704-2.144-8.992-5.152C323.84 708.672 155.424 536.832 155.424 377.408z" p-id="2311"></path></svg>