<?xml version="1.0" standalone="no"?><!DOCTYPE svg PUBLIC "-//W3C//DTD SVG 1.1//EN" "http://www.w3.org/Graphics/SVG/1.1/DTD/svg11.dtd"><svg t="1590111186776" class="icon" viewBox="60 80 900 860" version="1.1" xmlns="http://www.w3.org/2000/svg" p-id="2371" xmlns:xlink="http://www.w3.org/1999/xlink" width="24" height="24"><defs><style type="text/css"></style></defs><path d="M512 512m-445 0a445 445 0 1 0 890 0 445 445 0 1 0-890 0Z" fill="#3F50F3" p-id="2372"></path><path d="M754.3 341l-44.7-44.7c-13.4-13.4-30.9-20.1-48.4-20.1s-35.1 6.7-48.4 20.1L353.1 555.8c-0.3-0.2-0.5-0.4-0.5-0.4L332.3 576l-0.2 0.8-0.2 0.2 0.1 0.1-19.4 79.8s-19 77.2-21.7 100.4c-0.2 0.9 0.6 1.8 1.5 1.8h0.3c32.3-4.4 100-21.5 100-21.5L473 718c0.1 0.2 0.4 0.6 0.4 0.6l280.7-280.7c26.9-26.8 26.9-70.2 0.2-96.9zM384.6 705.2c-0.4 0.1-25.6 6.4-51.9 12.3 4.1-18.4 8.8-38.3 12.3-52.7l15.2-62.7c13.6 10 27.5 20.4 37.5 28.6 3.7 3.4 7.4 6.7 11.3 10.4 3.2 3.4 6.1 6.6 9.1 9.9 8.5 10.3 19.5 24.7 29.9 38.8l-63.4 15.4z m346.1-291L476.9 668c-8.8-10.9-19.9-24-33-38.4l209.3-209.3c6.5-6.5 6.5-17.1 0-23.6s-17.1-6.5-23.6 0L420.4 606c-0.2-0.2-0.4-0.3-0.6-0.5-14-12.7-26.7-23.4-37.2-31.9l253.7-253.7c6.6-6.6 15.5-10.3 24.8-10.3 9.4 0 18.2 3.7 24.8 10.3l44.7 44.7c13.8 13.7 13.8 35.9 0.1 49.6z" fill="#FFFFFF" p-id="2373"></path></svg>