<?xml version="1.0" standalone="no"?><!DOCTYPE svg PUBLIC "-//W3C//DTD SVG 1.1//EN" "http://www.w3.org/Graphics/SVG/1.1/DTD/svg11.dtd"><svg t="1590115941110" class="icon" viewBox="60 80 900 860" version="1.1" xmlns="http://www.w3.org/2000/svg" p-id="2261" xmlns:xlink="http://www.w3.org/1999/xlink" width="24" height="24"><defs><style type="text/css"></style></defs><path d="M512 109c-222.6 0-403 180.4-403 403s180.4 403 403 403 403-180.4 403-403-180.4-403-403-403z m167.9 436.6H545.6v134.3c0 18.5-15 33.6-33.6 33.6-18.5 0-33.6-15-33.6-33.6V545.6H344.1c-18.5 0-33.6-15-33.6-33.6 0-18.5 15-33.6 33.6-33.6h134.3V344.1c0-18.5 15-33.6 33.6-33.6 18.5 0 33.6 15 33.6 33.6v134.3h134.3c18.5 0 33.6 15 33.6 33.6 0 18.5-15 33.6-33.6 33.6z" p-id="2262" fill="#228B22"></path></svg>