<?xml version="1.0" standalone="no"?><!DOCTYPE svg PUBLIC "-//W3C//DTD SVG 1.1//EN" "http://www.w3.org/Graphics/SVG/1.1/DTD/svg11.dtd"><svg t="1588986277986" class="icon" viewBox="90 0 1024 1024" version="1.1" xmlns="http://www.w3.org/2000/svg" p-id="1261" xmlns:xlink="http://www.w3.org/1999/xlink" width="290.4296875" height="200"><defs><style type="text/css"></style></defs><path d="M328.374272 0h551.400969c130.497993 0 236.299516 105.801522 236.299516 236.299516v551.400968c0 130.497993-105.801522 236.299516-236.299516 236.299516H328.374272c-130.497993 0-236.299516-105.801522-236.299515-236.299516V236.299516c0-130.497993 105.801522-236.299516 236.299515-236.299516z m582.68789 632.541453c-4.854256-64.558062-49.570104-118.628097-75.435848-146.619792 3.578685-8.114048 12.330519-55.239308-21.401246-87.412042 0.035433-0.779516 0.035433-1.523599 0.035433-2.267681 0-126.777578-93.187543-218.051765-210.185744-218.476955-116.962768 0.42519-210.185744 91.699377-210.185744 218.476955 0 0.779516 0 1.559031 0.070865 2.303114-33.767197 32.137301-24.979931 79.262561-21.436678 87.412041-25.830311 27.956263-70.581592 81.990865-75.435848 146.58436-0.885813 16.97218 1.842491 41.704083 10.417163 52.723599 10.417163 13.358062 39.046644-2.728304 59.526643-45.530796 5.704637 19.842215 18.850104 50.101592 48.613426 88.545882-49.818131 10.984083-64.026574 58.534533-47.26699 84.57744 11.834464 18.283183 38.869481 33.342007 85.498685 33.342007 82.982976 0 119.584775-21.578408 135.91917-36.6018 3.36609-3.295225 8.149481-4.889689 14.31474-4.889688 6.094394 0 10.913218 1.594464 14.243876 4.889688 16.334394 15.058824 52.936194 36.601799 135.919169 36.6018 46.629204 0 73.664221-15.058824 85.463253-33.37744 16.795017-26.007474 2.586574-73.522491-47.231557-84.542007 29.763322-38.444291 42.908789-68.703668 48.613425-88.545882 20.515433 42.802491 49.144913 58.924291 59.562077 45.495363 8.539239-10.984083 11.267543-35.680554 10.38173-52.723598v0.035432z" p-id="1262" fill="#ffffff"></path></svg>