<?xml version="1.0" standalone="no"?><!DOCTYPE svg PUBLIC "-//W3C//DTD SVG 1.1//EN" "http://www.w3.org/Graphics/SVG/1.1/DTD/svg11.dtd"><svg t="1589505499420" class="icon" viewBox="0 0 1024 1024" version="1.1" xmlns="http://www.w3.org/2000/svg" p-id="4984" xmlns:xlink="http://www.w3.org/1999/xlink" width="200" height="200"><defs><style type="text/css"></style></defs><path fill="#7f8c8d" d="M665.6 235.8272V235.52h199.68v0.3072a40.96 40.96 0 0 1 0 81.3056V317.44H665.6v-0.3072a40.96 40.96 0 0 1 0-81.3056z m51.2 204.8V440.32h143.36a40.96 40.96 0 1 1 0 81.92H716.8v-0.3072a40.96 40.96 0 0 1 0-81.3056z m35.84 204.4928h107.52a40.96 40.96 0 1 1 0 81.92h-107.52a40.96 40.96 0 1 1 0-81.92zM495.616 489.5744A230.3488 230.3488 0 0 1 612.9664 716.8h-0.256a39.1168 39.1168 0 1 1-75.4176-16.384 153.6 153.6 0 1 0-304.7936 16.384h-0.6656a39.2192 39.2192 0 1 1-77.6704-8.704 230.4 230.4 0 0 1 118.272-218.5728 153.6 153.6 0 1 1 223.1296 0zM153.6 0h716.8512A153.6 153.6 0 0 1 1024 153.5488V819.2h-78.9504c1.4336-8.3456 2.1504-16.8448 2.1504-25.6v-563.2a153.6 153.6 0 0 0-153.6-153.6h-563.2a153.6 153.6 0 0 0-153.6 153.6v563.2a153.6 153.6 0 0 0 153.6 153.6h563.2c8.704 0 17.3056-0.7168 25.6-2.1504V1024h25.6H153.6a153.6 153.6 0 0 1-153.6-153.6V153.5488A153.6 153.6 0 0 1 153.6 0z m230.4 460.8a76.8 76.8 0 1 0 0-153.6 76.8 76.8 0 0 0 0 153.6z" p-id="4985"></path><path fill="#7f8c8d" d="M819.2 768h153.6a51.2 51.2 0 0 1 51.2 51.2l-204.8 204.8a51.2 51.2 0 0 1-51.2-51.2v-153.6a51.2 51.2 0 0 1 51.2-51.2z m15.36 140.288c0 10.1888 8.2432 18.432 18.432 18.432l73.728-73.728a18.432 18.432 0 0 0-18.432-18.432h-55.296a18.432 18.432 0 0 0-18.432 18.432v55.296z" p-id="4986"></path></svg>