<?xml version="1.0" standalone="no"?><!DOCTYPE svg PUBLIC "-//W3C//DTD SVG 1.1//EN" "http://www.w3.org/Graphics/SVG/1.1/DTD/svg11.dtd"><svg t="1589505782099" class="icon" viewBox="0 0 1024 1024" version="1.1" xmlns="http://www.w3.org/2000/svg" p-id="2950" xmlns:xlink="http://www.w3.org/1999/xlink" width="200" height="200"><defs><style type="text/css"></style></defs><path fill="#7f8c8d" d="M511.565 358.4a12.762 12.762 0 0 0-9.6 3.878l-146.381 150.63a12.8 12.8 0 1 0 18.368 17.844L499.2 401.856V729.6a12.8 12.8 0 0 0 25.6 0V400.512l120.768 126.874a12.8 12.8 0 1 0 18.547-17.652L523.827 362.381a12.774 12.774 0 0 0-10.547-3.917 12.954 12.954 0 0 0-1.715-0.051zM512 1024C229.235 1024 0 794.765 0 512S229.235 0 512 0s512 229.235 512 512-229.235 512-512 512zM320 320h384a12.8 12.8 0 0 0 0-25.6H320a12.8 12.8 0 0 0 0 25.6z" p-id="2951"></path></svg>